<?xml version="1.0" encoding="UTF-8"?>
<svg version="1.1" xmlns="http://www.w3.org/2000/svg" width="620" height="620">
<path d="M0 0 C6.94997393 -0.0021409 13.89994592 -0.00538301 20.84991884 -0.00967932 C70.3308533 -0.03957838 119.8104987 0.05294476 169.29005599 0.44833481 C174.00762953 0.48602615 178.72520394 0.51983427 183.4428308 0.55010331 C188.95392138 0.58596928 194.46485231 0.63145317 199.97580528 0.68431914 C201.98638803 0.70223907 203.99700082 0.71711444 206.00763083 0.72856295 C230.88433934 0.87636764 249.83477929 3.05714681 268.81594443 20.60577118 C284.92873388 37.12907756 288.1997859 53.78053495 288.58080649 75.98217499 C288.61150194 77.5487591 288.61150194 77.5487591 288.6428175 79.14699137 C288.70861858 82.64847577 288.7667595 86.15002341 288.82326865 89.65166962 C288.84423095 90.89695168 288.86519324 92.14223373 288.88679075 93.4252516 C289.45433108 127.97696342 289.41659013 162.53167617 289.40436984 197.08707084 C289.40204908 203.82708748 289.40181431 210.5671016 289.4028852 217.30711854 C289.40311505 218.77063943 289.40311505 218.77063943 289.40334954 220.2637264 C289.40366941 222.24848793 289.40399362 224.23324946 289.40432213 226.21801099 C289.40714293 244.63179054 289.40394385 263.04556504 289.39852177 281.45934376 C289.39405402 297.11460073 289.39483613 312.76985028 289.39944053 328.42510712 C289.4048424 346.79928366 289.4068715 365.17345583 289.40382826 383.54763305 C289.40350986 385.52206767 289.40319548 387.49650228 289.4028852 389.47093689 C289.40273092 390.44130885 289.40257665 391.4116808 289.4024177 392.41145797 C289.40156941 399.11238179 289.40300064 405.8133027 289.40536475 412.51422608 C289.42709196 480.86585134 289.42709196 480.86585134 288.88576865 514.18291962 C288.87062665 515.26545659 288.85548465 516.34799356 288.8398838 517.46333468 C288.3196596 552.95488732 288.3196596 552.95488732 282.26906943 563.12139618 C281.54397178 564.40530243 281.54397178 564.40530243 280.80422568 565.71514618 C271.98514099 580.48970689 258.747628 593.52262191 242.03078818 598.83233368 C230.68553482 601.6132306 218.69830689 601.39227116 207.08547568 601.67580903 C205.84956278 601.70726633 205.84956278 601.70726633 204.58868194 601.73935913 C186.03801142 602.20463139 167.49212451 602.26557938 148.93659568 602.25212085 C144.18120801 602.24980391 139.42582358 602.25337677 134.67043662 602.25610077 C125.41316126 602.26049187 116.15589411 602.25961216 106.89861846 602.25668813 C99.35885275 602.25440748 91.8190893 602.25413294 84.27932334 602.25521195 C83.19640038 602.25536518 82.11347741 602.25551842 80.9977386 602.25567629 C78.79616268 602.25599609 76.59458677 602.25632031 74.39301085 602.25664888 C53.86430733 602.25948416 33.3356083 602.25624752 12.80690551 602.25084852 C-4.71612543 602.24638227 -22.23914974 602.24715876 -39.76218057 602.25176728 C-60.22945157 602.25714779 -80.69671865 602.25920965 -101.16399026 602.25615501 C-103.35638833 602.25583655 -105.5487864 602.25552217 -107.74118447 602.25521195 C-108.81921555 602.25505767 -109.89724662 602.2549034 -111.0079453 602.25474445 C-118.51765881 602.25388967 -126.02736979 602.25531947 -133.53708291 602.2576915 C-142.71893078 602.26052863 -151.90077012 602.25967035 -161.08261704 602.25441076 C-165.7457071 602.25182556 -170.40878308 602.25067772 -175.07187295 602.25405991 C-192.62430004 602.26557043 -210.17247916 602.19831177 -227.72095323 601.79429077 C-229.31552776 601.7578758 -230.91015772 601.72378787 -232.50483918 601.69240274 C-240.71007743 601.52517945 -248.83137036 601.12100167 -256.98849893 600.18830788 C-257.68613382 600.10957265 -258.38376872 600.03083741 -259.10254407 599.94971626 C-274.49553272 598.0392982 -287.36171734 587.804864 -297.18405557 576.23077118 C-311.71549052 557.46501082 -311.84289738 539.53979341 -312.28512979 516.68438447 C-312.31657323 515.1081639 -312.31657323 515.1081639 -312.34865189 513.50010049 C-313.00582406 479.36637084 -312.87772536 445.22232598 -312.86623097 411.08384585 C-312.86391872 404.03273403 -312.86367204 396.98162463 -312.86474633 389.93051255 C-312.86489957 388.91316064 -312.8650528 387.89580873 -312.86521067 386.84762798 C-312.86553051 384.77862178 -312.86585473 382.70961559 -312.86618327 380.6406094 C-312.86901021 361.40392976 -312.86579517 342.16725495 -312.8603829 322.9305761 C-312.85591606 306.54903065 -312.85669528 290.16749229 -312.86130166 273.78594697 C-312.8666949 254.59811427 -312.86873719 235.41028575 -312.8656894 216.2224524 C-312.86537096 214.16318437 -312.86505659 212.10391633 -312.86474633 210.04464829 C-312.86459206 209.03237462 -312.86443778 208.02010094 -312.86427883 206.97715231 C-312.86342791 199.96191746 -312.86486772 192.94668539 -312.86722589 185.93145096 C-312.88902683 113.95613158 -312.88902683 113.95613158 -312.34762979 84.88750947 C-312.33248779 83.95297369 -312.31734579 83.01843792 -312.30174494 82.05558288 C-311.88042595 57.41383797 -309.39040336 38.39373349 -291.91843057 19.80889618 C-270.65699729 -0.16396538 -246.57928061 0.83975005 -218.94186807 0.70733368 C-216.34232011 0.6883126 -213.74277688 0.66863615 -211.14323831 0.64837372 C-204.73193642 0.6003914 -198.32061468 0.56376187 -191.90921634 0.53147447 C-186.56693868 0.50449894 -181.22469483 0.47366043 -175.88245034 0.44079316 C-117.25565514 0.08358136 -58.62774392 0.01801505 0 0 Z M-182.81325088 30.51932948 C-187.00260558 30.55099796 -191.1919663 30.58152476 -195.38133678 30.61103097 C-202.57417403 30.66171633 -209.7669533 30.7175571 -216.95970607 30.77919638 C-219.33796954 30.79902742 -221.71624536 30.81743713 -224.09453177 30.83429301 C-227.35346166 30.85786254 -230.61229089 30.88719942 -233.87115884 30.91805756 C-234.80171173 30.9236166 -235.73226462 30.92917565 -236.69101608 30.93490314 C-250.48896646 31.08420812 -259.87527946 31.69949268 -270.27780557 41.52764618 C-280.98633068 52.86608454 -281.78090834 62.65361862 -282.04266763 77.72797883 C-282.06313126 78.75647269 -282.08359489 79.78496656 -282.10467863 80.8446269 C-282.17054077 84.29626288 -282.22864092 87.74796372 -282.28512979 91.19976532 C-282.30609208 92.42604083 -282.32705437 93.65231633 -282.34865189 94.9157517 C-282.91376815 128.7755316 -282.87847211 162.63817582 -282.86623097 196.50168198 C-282.86390942 203.09819313 -282.86367577 209.69470171 -282.86474633 216.29121315 C-282.86489957 217.24644682 -282.8650528 218.20168048 -282.86521067 219.18586062 C-282.86553055 221.12914176 -282.86585476 223.0724229 -282.86618327 225.01570404 C-282.86900427 243.04665534 -282.86580505 261.07760148 -282.8603829 279.10855193 C-282.85591872 294.4254173 -282.85669429 309.74227509 -282.86130166 325.05914032 C-282.86670941 343.04404128 -282.86872916 361.02893777 -282.8656894 379.01383942 C-282.865371 380.94848076 -282.86505663 382.88312211 -282.86474633 384.81776345 C-282.86459206 385.76851877 -282.86443778 386.71927409 -282.86427883 387.69884018 C-282.863432 394.25159862 -282.86485858 400.80435407 -282.86722589 407.35711205 C-282.88720704 456.97973717 -282.88720704 456.97973717 -282.40358353 506.59945607 C-282.36695998 509.06336018 -282.3329126 511.52730425 -282.30174494 513.99128342 C-282.61905832 539.84325555 -282.61905832 539.84325555 -269.67233682 561.21905243 C-258.84814848 571.15704991 -248.42743645 571.276085 -234.27316689 571.67580903 C-233.2042236 571.70726633 -233.2042236 571.70726633 -232.11368549 571.73935913 C-214.04124678 572.26086355 -195.96947315 572.26472553 -177.89097381 572.25212085 C-172.97471989 572.24981489 -168.05846919 572.25337163 -163.14221597 572.25610077 C-153.56040796 572.26050298 -143.97860786 572.25960702 -134.39679956 572.25668813 C-126.59609706 572.25441202 -118.79539674 572.25413104 -110.99469399 572.25521195 C-109.87634563 572.25536518 -108.75799727 572.25551842 -107.60575956 572.25567629 C-105.33250332 572.25599608 -103.05924708 572.25632029 -100.78599083 572.25664888 C-79.56501232 572.25948742 -58.34403815 572.25624232 -37.12306035 572.25084852 C-18.9900696 572.24638197 -0.85708526 572.24715836 17.27590537 572.25176728 C38.43087947 572.25714193 59.58584977 572.25921288 80.74082446 572.25615501 C83.00482726 572.25583653 85.26883006 572.25552216 87.53283286 572.25521195 C89.2029012 572.25498054 89.2029012 572.25498054 90.9067083 572.25474445 C98.6807047 572.25388794 106.45469866 572.25532333 114.22869468 572.2576915 C123.72737761 572.260522 133.2260523 572.25968373 142.72473431 572.25441076 C147.5532418 572.25181698 152.38173565 572.25069338 157.21024299 572.25405991 C174.32304297 572.26485145 191.43396812 572.24343201 208.54196107 571.79429077 C209.94262874 571.75772397 211.34336437 571.72365147 212.74416077 571.69240274 C226.32950804 571.37706783 235.91302208 570.45388072 246.26906943 561.12139618 C257.65871851 548.98599627 258.3373385 539.2063091 258.58080649 523.14106476 C258.61150194 521.39079344 258.61150194 521.39079344 258.6428175 519.6051631 C258.69704778 516.39319863 258.74687661 513.18121088 258.79354349 509.96912853 C258.82366737 507.90684388 258.85512805 505.84458277 258.88679075 503.78232121 C259.405371 469.58354776 259.41720631 435.38432633 259.40436984 401.18236392 C259.40204131 394.80820513 259.4018174 388.43404901 259.4028852 382.05988991 C259.40303843 381.13437769 259.40319166 380.20886547 259.40334954 379.25530742 C259.40366943 377.37210841 259.40399365 375.4889094 259.40432213 373.60571039 C259.40713811 356.16309728 259.40395199 338.72048951 259.39852177 321.27787728 C259.39405658 306.47970188 259.394835 291.68153434 259.39944053 276.88335907 C259.40485496 259.4792232 259.40686456 242.07509196 259.40382826 224.67095536 C259.40350989 222.79699914 259.40319551 220.92304291 259.4028852 219.04908669 C259.40273092 218.12830524 259.40257665 217.2075238 259.4024177 216.25883989 C259.40157292 209.93030865 259.40299274 203.60178051 259.40536475 197.27324975 C259.41676144 163.5201108 259.38729421 129.7682911 258.91298947 96.01791079 C258.88621799 94.03768897 258.86302038 92.05741988 258.8398838 90.07715225 C258.79569867 86.44475459 258.73911525 82.81277107 258.67846274 79.18061554 C258.66732845 78.14229195 258.65619416 77.10396835 258.64472246 76.0341804 C258.35953617 61.52549278 256.58261422 51.59269324 246.21047568 41.02373993 C235.05882725 30.78509196 224.12661701 30.96656442 209.65432334 30.80938447 C208.04166856 30.78891837 206.4290168 30.76821352 204.81636786 30.74729264 C200.36448366 30.69141953 195.91254786 30.6427885 191.46055532 30.59643042 C188.5902128 30.56639033 185.71988845 30.53492411 182.84956336 30.50326645 C130.60372813 29.93554454 78.35533028 29.96898081 26.1071184 29.99193433 C15.84322703 29.99635975 5.57934729 29.99561083 -4.68454385 29.99102509 C-64.0621752 29.96527799 -123.43709868 30.07009507 -182.81325088 30.51932948 Z " fill="#FFFFFF" transform="translate(321.7309305667877,8.87860381603241)"/>
<path d="M0 0 C122.76 0 245.52 0 372 0 C372 21.45 372 42.9 372 65 C249.24 65 126.48 65 0 65 C0 43.55 0 22.1 0 0 Z M30 30 C30 31.65 30 33.3 30 35 C132.96 35 235.92 35 342 35 C342 33.35 342 31.7 342 30 C239.04 30 136.08 30 30 30 Z " fill="#FFFFFF" transform="translate(124,338)"/>
<path d="M0 0 C1.40780035 -0.00115473 2.81560039 -0.00274461 4.22339982 -0.00472724 C8.05931673 -0.00887199 11.89520851 -0.00685203 15.73112547 -0.00374103 C19.88037316 -0.00146734 24.02961668 -0.00497623 28.17886353 -0.00772095 C36.29296993 -0.01215603 44.40706705 -0.01121242 52.52117381 -0.00830831 C59.11550812 -0.00604616 65.70983984 -0.00574527 72.30417442 -0.00683212 C73.71413825 -0.00706197 73.71413825 -0.00706197 75.15258619 -0.00729647 C77.06230766 -0.0076162 78.97202913 -0.00794041 80.88175061 -0.00826906 C98.76645916 -0.01111702 116.65116257 -0.00784714 134.53587028 -0.00246869 C149.87850491 0.00200238 165.22113198 0.0012196 180.56376648 -0.00338745 C198.39403047 -0.00873899 216.22428996 -0.01084623 234.05455464 -0.00777519 C235.95556112 -0.00745664 237.8565676 -0.00714227 239.75757408 -0.00683212 C240.69284674 -0.00667785 241.62811939 -0.00652357 242.59173364 -0.00636462 C249.17995479 -0.00550148 255.7681731 -0.0069579 262.35639381 -0.00931168 C270.38217037 -0.01211613 278.40793714 -0.01135758 286.43371258 -0.00603093 C290.52773235 -0.00340324 294.62173581 -0.00237317 298.71575546 -0.00568008 C302.46399437 -0.00866195 306.21220186 -0.0070187 309.96043792 -0.00170253 C311.95690925 -0.00005821 313.95338277 -0.00331898 315.94985181 -0.00675976 C321.63465925 0.00568851 327.10038853 0.08621651 332.69633484 1.12698364 C333.48352943 10.8245511 333.90758455 20.52980908 334.25883484 30.25198364 C334.32445618 31.97227783 334.32445618 31.97227783 334.3914032 33.72732544 C334.76297292 44.54471447 334.69633484 55.28091699 334.69633484 66.12698364 C211.60633484 66.12698364 88.51633484 66.12698364 -38.30366516 66.12698364 C-38.30366516 11.74236826 -38.30366516 11.74236826 -32.86616516 5.18948364 C-23.94942505 -1.98740474 -10.86011238 -0.01887937 0 0 Z M-8.30366516 30.12698364 C-8.30366516 32.10698364 -8.30366516 34.08698364 -8.30366516 36.12698364 C94.65633484 36.12698364 197.61633484 36.12698364 303.69633484 36.12698364 C303.69633484 34.14698364 303.69633484 32.16698364 303.69633484 30.12698364 C200.73633484 30.12698364 97.77633484 30.12698364 -8.30366516 30.12698364 Z " fill="#FFFFFF" transform="translate(162.3036651611328,194.87301635742188)"/>
<path d="M0 0 C122.76 0 245.52 0 372 0 C372 21.12 372 42.24 372 64 C249.24 64 126.48 64 0 64 C0 42.88 0 21.76 0 0 Z M30 30 C30 31.32 30 32.64 30 34 C132.96 34 235.92 34 342 34 C342 32.68 342 31.36 342 30 C239.04 30 136.08 30 30 30 Z " fill="#FFFFFF" transform="translate(124,268)"/>
<path d="M0 0 C4.05931254 0.0018091 8.1186231 0.00143088 12.17793584 0.00050974 C13.20294856 0.00027989 13.20294856 0.00027989 14.2486686 0.0000454 C15.63918018 -0.0002745 17.02969176 -0.00059872 18.42020334 -0.00092719 C31.36291288 -0.00375627 44.30561526 -0.00053957 57.24832363 0.00487317 C68.1800897 0.00930531 79.11184495 0.00854656 90.04361081 0.00395441 C215.7691747 -0.0475014 215.7691747 -0.0475014 270.19864011 1.1343255 C270.29713254 3.07339525 270.29713254 3.07339525 270.39761472 5.05163813 C270.43987683 5.88346204 270.48213895 6.71528595 270.52568173 7.57231665 C270.6180025 9.39031114 270.71023595 11.20831008 270.80238461 13.0263133 C270.99125961 16.75093176 271.18056886 20.47550886 271.37490964 24.19984674 C271.50868462 26.7650227 271.63575713 29.33044637 271.76114011 31.89604425 C271.8043237 32.69546442 271.8475073 33.49488459 271.89199948 34.31852961 C272.36753165 44.27498434 272.19864011 54.12877926 272.19864011 64.1343255 C149.10864011 64.1343255 26.01864011 64.1343255 -100.80135989 64.1343255 C-100.80135989 11.84485182 -100.80135989 11.84485182 -95.42635989 5.1968255 C-90.99703728 1.71664345 -87.22891879 0.88297387 -81.65400577 0.72493219 C-79.75296635 0.66782981 -79.75296635 0.66782981 -77.8135221 0.60957384 C-76.38883063 0.57814904 -74.96412112 0.54753442 -73.539397 0.51762629 C-72.79193835 0.49916155 -72.0444797 0.48069682 -71.27437079 0.46167254 C-47.52260147 -0.12304227 -23.75708267 -0.01183451 0 0 Z M-70.80135989 30.1343255 C-70.80135989 31.4543255 -70.80135989 32.7743255 -70.80135989 34.1343255 C32.15864011 34.1343255 135.11864011 34.1343255 241.19864011 34.1343255 C241.19864011 33.1443255 241.19864011 32.1543255 241.19864011 31.1343255 C210.15831519 29.91147619 179.1115866 30.00018566 148.05331717 30.03078773 C140.44656006 30.03807675 132.83980477 30.03945017 125.23304465 30.04058344 C111.67632592 30.04275247 98.11961333 30.04935312 84.56289792 30.05888605 C71.42227323 30.06811657 58.28165022 30.07516952 45.14102292 30.07939386 C44.32607019 30.07965659 43.51111745 30.07991931 42.67146918 30.08019 C38.58160837 30.08149538 34.49174754 30.082759 30.4018867 30.0840019 C-3.33253328 30.09430735 -37.06694582 30.11186575 -70.80135989 30.1343255 Z " fill="#FFFFFF" transform="translate(224.80135989189148,123.86567449569702)"/>
<path d="M0 0 C72.93 0 145.86 0 221 0 C222.1529022 20.75223952 222.1529022 20.75223952 222.1328125 29.78515625 C222.13376923 30.77833359 222.13472595 31.77151093 222.13571167 32.79478455 C222.13638105 34.8486233 222.13461557 36.90246435 222.13037109 38.95629883 C222.12490508 42.11739676 222.13040773 45.2783589 222.13671875 48.43945312 C222.13605966 50.45052115 222.13478201 52.46158908 222.1328125 54.47265625 C222.13483673 55.41722183 222.13686096 56.36178741 222.13894653 57.3349762 C222.13421829 58.62914711 222.13421829 58.62914711 222.12939453 59.94946289 C222.12859894 60.71013565 222.12780334 61.47080841 222.12698364 62.25453186 C222 64 222 64 221 65 C218.15529168 65.097926 215.33486096 65.12992493 212.48973083 65.12025452 C211.58641134 65.12110894 210.68309184 65.12196337 209.75239903 65.12284368 C206.70136809 65.12450126 203.65039117 65.1189726 200.59936523 65.11352539 C198.42190553 65.11324355 196.24444573 65.11340119 194.06698608 65.1139679 C188.13540803 65.114256 182.20385001 65.10835716 176.27227664 65.10139394 C170.08093793 65.09516258 163.88959881 65.09455677 157.69825745 65.09336853 C146.63286153 65.09043182 135.56747393 65.08320169 124.50208182 65.07372581 C110.48013616 65.06178151 96.45819165 65.05559925 82.43624198 65.05032361 C54.95748833 65.03985775 27.47874738 65.02151147 0 65 C0 43.55 0 22.1 0 0 Z M30 30 C30 31.65 30 33.3 30 35 C83.13 35 136.26 35 191 35 C191 33.35 191 31.7 191 30 C137.87 30 84.74 30 30 30 Z " fill="#FFFFFF" transform="translate(124,409)"/>
</svg>
